<svg width="20" height="20" viewBox="0 0 20 20" fill="none" xmlns="http://www.w3.org/2000/svg">
<g clip-path="url(#clip0_8_1253)">
<path d="M8.21674 15C8.10247 14.9996 7.98951 14.9758 7.88486 14.9299C7.7802 14.884 7.6861 14.8171 7.60841 14.7333L3.5584 10.425C3.40701 10.2637 3.32591 10.0488 3.33294 9.82765C3.33997 9.60652 3.43456 9.39723 3.5959 9.24584C3.75724 9.09444 3.97212 9.01334 4.19325 9.02037C4.41439 9.0274 4.62368 9.122 4.77507 9.28334L8.20841 12.9417L15.2167 5.275C15.2879 5.18644 15.3763 5.11335 15.4767 5.06022C15.5771 5.0071 15.6873 4.97505 15.8006 4.96607C15.9138 4.95708 16.0277 4.97134 16.1352 5.00796C16.2427 5.04458 16.3416 5.1028 16.4258 5.17904C16.51 5.25528 16.5777 5.34792 16.6248 5.45129C16.6719 5.55465 16.6974 5.66655 16.6997 5.78012C16.7019 5.89368 16.681 6.00651 16.638 6.11168C16.5951 6.21684 16.5312 6.31212 16.4501 6.39167L8.83341 14.725C8.75644 14.8103 8.66267 14.8788 8.55798 14.9261C8.45329 14.9734 8.33995 14.9986 8.22507 15H8.21674Z" fill="#F2F2F2"/>
</g>
<defs>
<clipPath id="clip0_8_1253">
<rect width="20" height="20" fill="white"/>
</clipPath>
</defs>
</svg>
