<svg width="40" height="40" viewBox="0 0 40 40" fill="none" xmlns="http://www.w3.org/2000/svg">
<g clip-path="url(#clip0_10_1287)">
<path d="M31.6666 6.66667H8.33325C7.00717 6.66667 5.7354 7.19346 4.79772 8.13114C3.86004 9.06882 3.33325 10.3406 3.33325 11.6667V28.3333C3.33325 29.6594 3.86004 30.9312 4.79772 31.8689C5.7354 32.8066 7.00717 33.3333 8.33325 33.3333H31.6666C32.9927 33.3333 34.2644 32.8066 35.2021 31.8689C36.1398 30.9312 36.6666 29.6594 36.6666 28.3333V11.6667C36.6666 10.3406 36.1398 9.06882 35.2021 8.13114C34.2644 7.19346 32.9927 6.66667 31.6666 6.66667ZM30.5499 10L19.9999 17.9167L9.44992 10H30.5499ZM31.6666 30H8.33325C7.89122 30 7.4673 29.8244 7.15474 29.5119C6.84218 29.1993 6.66659 28.7754 6.66659 28.3333V12.0833L18.9999 21.3333C19.2884 21.5497 19.6393 21.6667 19.9999 21.6667C20.3605 21.6667 20.7114 21.5497 20.9999 21.3333L33.3333 12.0833V28.3333C33.3333 28.7754 33.1577 29.1993 32.8451 29.5119C32.5325 29.8244 32.1086 30 31.6666 30Z" fill="#F2F2F2"/>
</g>
<defs>
<clipPath id="clip0_10_1287">
<rect width="40" height="40" fill="white"/>
</clipPath>
</defs>
</svg>
