<svg width="20" height="20" viewBox="0 0 20 20" fill="none" xmlns="http://www.w3.org/2000/svg">
<g clip-path="url(#clip0_8_887)">
<path d="M9.99998 17.5C9.8903 17.5006 9.78158 17.4796 9.68005 17.4381C9.57852 17.3967 9.48618 17.3356 9.40831 17.2583L2.93331 10.775C2.12111 9.95431 1.66553 8.8463 1.66553 7.69167C1.66553 6.53703 2.12111 5.42902 2.93331 4.60833C3.75186 3.79209 4.86067 3.33372 6.01664 3.33372C7.17262 3.33372 8.28142 3.79209 9.09998 4.60833L9.99998 5.50833L10.9 4.60833C11.7185 3.79209 12.8273 3.33372 13.9833 3.33372C15.1393 3.33372 16.2481 3.79209 17.0666 4.60833C17.8788 5.42902 18.3344 6.53703 18.3344 7.69167C18.3344 8.8463 17.8788 9.95431 17.0666 10.775L10.5916 17.2583C10.5138 17.3356 10.4214 17.3967 10.3199 17.4381C10.2184 17.4796 10.1096 17.5006 9.99998 17.5ZM6.01664 5C5.66387 4.9984 5.31429 5.06682 4.98815 5.20128C4.66201 5.33574 4.36578 5.53358 4.11664 5.78333C3.61336 6.28927 3.33084 6.97387 3.33084 7.6875C3.33084 8.40113 3.61336 9.08573 4.11664 9.59167L9.99998 15.4833L15.8833 9.59167C16.3866 9.08573 16.6691 8.40113 16.6691 7.6875C16.6691 6.97387 16.3866 6.28927 15.8833 5.78333C15.3697 5.29809 14.6899 5.02775 13.9833 5.02775C13.2767 5.02775 12.5969 5.29809 12.0833 5.78333L10.5916 7.28333C10.5142 7.36144 10.422 7.42343 10.3205 7.46574C10.2189 7.50805 10.11 7.52983 9.99998 7.52983C9.88997 7.52983 9.78104 7.50805 9.67949 7.46574C9.57795 7.42343 9.48578 7.36144 9.40831 7.28333L7.91664 5.78333C7.6675 5.53358 7.37128 5.33574 7.04514 5.20128C6.71899 5.06682 6.36941 4.9984 6.01664 5Z" fill="#F2F2F2"/>
</g>
<defs>
<clipPath id="clip0_8_887">
<rect width="20" height="20" fill="white"/>
</clipPath>
</defs>
</svg>
