<svg width="20" height="20" viewBox="0 0 20 20" fill="none" xmlns="http://www.w3.org/2000/svg">
<g clip-path="url(#clip0_8_877)">
<path d="M9.99984 10.8333C10.4601 10.8333 10.8332 10.4602 10.8332 10C10.8332 9.53976 10.4601 9.16666 9.99984 9.16666C9.5396 9.16666 9.1665 9.53976 9.1665 10C9.1665 10.4602 9.5396 10.8333 9.99984 10.8333Z" fill="#F2F2F2"/>
<path d="M13.3333 10.8333C13.7936 10.8333 14.1667 10.4602 14.1667 10C14.1667 9.53976 13.7936 9.16666 13.3333 9.16666C12.8731 9.16666 12.5 9.53976 12.5 10C12.5 10.4602 12.8731 10.8333 13.3333 10.8333Z" fill="#F2F2F2"/>
<path d="M6.66683 10.8333C7.12707 10.8333 7.50016 10.4602 7.50016 10C7.50016 9.53976 7.12707 9.16666 6.66683 9.16666C6.20659 9.16666 5.8335 9.53976 5.8335 10C5.8335 10.4602 6.20659 10.8333 6.66683 10.8333Z" fill="#F2F2F2"/>
<path d="M15.8915 4.10833C14.5242 2.73208 12.7196 1.87601 10.7887 1.6877C8.85786 1.49939 6.92181 1.99065 5.31434 3.07678C3.70687 4.1629 2.52872 5.77584 1.98299 7.63751C1.43726 9.49918 1.55817 11.4929 2.32485 13.275C2.40476 13.4406 2.43098 13.6271 2.39985 13.8083L1.66652 17.3333C1.63827 17.4685 1.64404 17.6085 1.68331 17.7409C1.72258 17.8733 1.79413 17.9938 1.89152 18.0917C1.97136 18.1709 2.06642 18.2332 2.17097 18.2747C2.27552 18.3163 2.38739 18.3362 2.49985 18.3333H2.66652L6.23319 17.6167C6.41446 17.5949 6.59829 17.6207 6.76652 17.6917C8.5486 18.4584 10.5423 18.5793 12.404 18.0335C14.2657 17.4878 15.8786 16.3097 16.9647 14.7022C18.0509 13.0947 18.5421 11.1587 18.3538 9.22782C18.1655 7.29697 17.3094 5.49232 15.9332 4.125L15.8915 4.10833ZM16.5832 11.075C16.4203 12.07 16.0338 13.0151 15.4528 13.8391C14.8719 14.6631 14.1116 15.3446 13.2291 15.8324C12.3467 16.3201 11.3652 16.6014 10.3584 16.6549C9.35156 16.7085 8.34571 16.533 7.41652 16.1417C7.08697 16.0015 6.73296 15.9279 6.37485 15.925C6.21842 15.9261 6.06234 15.94 5.90819 15.9667L3.55819 16.4417L4.03319 14.0917C4.12779 13.5827 4.06681 13.0571 3.85819 12.5833C3.46685 11.6541 3.29136 10.6483 3.34493 9.64148C3.3985 8.63467 3.67974 7.65312 4.16747 6.77071C4.65521 5.8883 5.33674 5.128 6.16077 4.54704C6.9848 3.96608 7.92987 3.5796 8.92485 3.41667C9.96925 3.24526 11.0394 3.32498 12.0469 3.64922C13.0544 3.97346 13.9702 4.5329 14.7186 5.28128C15.467 6.02966 16.0264 6.94546 16.3506 7.95294C16.6749 8.96041 16.7546 10.0306 16.5832 11.075Z" fill="#F2F2F2"/>
</g>
<defs>
<clipPath id="clip0_8_877">
<rect width="20" height="20" fill="white"/>
</clipPath>
</defs>
</svg>
